<?xml version="1.0" encoding="UTF-8"?>
<svg id="Layer_1" data-name="Layer 1" xmlns="http://www.w3.org/2000/svg" viewBox="0 0 609.43 160.04">
  <defs>
    <style>
      .cls-1 {
        fill: #fff;
      }
    </style>
  </defs>
  <path d="m96.91,41.7c-5.7-2.6-13.4-.5-18.9,1.9-17.7,7.7-32.1,19.9-45.1,33.9-14.1,15.1-28.5,37.9-27.5,59.4.4,8,5.4,15.4,13.7,16.8,11.5,1.9,19.8-1.2,31.4-6.4,10.6-4.8,20.6-10.7,29.9-17.7,6.8-5.1,16.7-14.4,25.6-21.1.4-.3.7-.5.8-.5.9-.3,1.2,0,.7.9-3.5,5.8-7.7,10.9-12.8,15.5-17.5,15.9-38.8,28.8-61.5,34.4C10.11,164.6-3.79,149.5.91,126.6c5.4-25.9,21.8-47.2,40.9-64.8,12-11.1,28.9-22.7,45.1-25.8,15.9-3.1,27.5,10.3,25.1,25.3-.8,5.1-3.1,9.6-6.9,13.6-.8.9-1.5.7-1.9-.4-.1-.2-.1-.5,0-.7,1.2-3.4,2.4-6.7,3.5-9.9,3.1-8.9-1.4-18.4-9.8-22.2Z"/>
  <path d="m358.71,75.1c.5-.8.3-1.2-.6-1.2-8-.1-15.1-.1-21.3-.1-2.6,0-4.4.9-5.5,2.7-4.3,6.8-8.8,13.6-13.3,20.2-4.1,6-9.5,11.9-14.1,17.9-.8,1-1.2.9-1.3-.4,0-.9.3-2,1.1-3.3,7.1-12.4,14.6-24.3,22.4-35.5.7-1,.4-1.5-.8-1.5-34.3,0-68.6.8-102.8,2.3-1.4.1-2.2-.6-2.2-2.1v-.4c0-.8.5-1.4,1.3-1.6,4.2-.8,9-1.3,14.2-1.5,33.4-1.6,64.1-2.4,92.3-2.4,3,0,4.2-2.4,5.8-4.7,12.7-18.2,24.7-37.2,38.5-54.7.4-.5,1.1-.6,1.6-.2l.4.3c.7.6.8,1.3.3,2l-37.1,56.3c-.2.2-.1.5.1.7.1.1.2.1.3.1h24c1,0,1.9-.5,2.5-1.3L408.01,1c.8-1.2,1.8-1.3,2.9-.4l.3.2c.7.5.9,1.5.5,2.3-2,3.9-3.9,7.5-6,10.6-11.3,17.7-22.9,35.6-34.9,53.9-.5.7-.3,1.1.6,1.1,9,.1,18-.8,26.8,2.6.1.1.2.2.2.4l-.1.1c-.3.2-.6.4-1,.4-9.5,1.3-18.7,1.8-27.5,1.6-2,0-3.6.7-4.6,2.2-14.9,21.8-29.3,44.2-45,65.5-2.2,3-7.2,2-5.6-2.3.9-2.6,2.2-4.7,3.8-6.5,4-4.4,7.7-9,11-13.9,10.1-14.8,19.9-29.3,29.3-43.7Z"/>
  <path d="m145.21,105l16.2-2.5c.3-.1.7-.2.9-.4,4.7-3.9,10.2-6.3,16.3-7.1,6.9-.9,22.5-26.6,27.2-33.7,1-1.4,2.2-1.8,3.8-1l.6.3c.9.5,1.3,1.6.8,2.5,0,.1-.1.1-.1.2-10.2,16-17.6,28-22.2,36.1-4.3,7.5-8.4,15.1-12.3,22.9-2,3.9-3.4,8.1-4.4,12.5-.2.9.1,1.2,1,.9,1.1-.4,2.4-1.1,3.7-2.2,11.1-8.7,21.8-18,32-27.7,1.4-1.3,2-4.2,3.3-5.8,3.5-4.2,9.1-4.7,15.1-5.5,5.7-.8,8.4,4.5,2.9,7.5-6,3.4-9.4,3.1-15.2,3.7-.9.1-1.6.9-1.5,1.9,0,.2.1.5.2.7.9,1.7,2.5,2.6,4.6,2.8,10.6.7,20.7-1.7,30.1-7.3,1.4-.8,2.6-.6,3.7.6l.2.2c1,1.1.8,2.1-.5,2.8-11.1,6.1-23,8.6-35.9,7.2-2.1-.2-4-1.3-5.7-3.2-.3-.3-.5-.3-.8,0-9.5,9.8-18.9,19-30.5,27.1-2.5,1.8-7.1,3.8-9.9,1.5-3.5-2.8.1-11.3,1.8-14.9,3.3-7.1,6.5-13.8,9.8-20.3,1-2.1.7-2.4-1.1-.9-3.7,3.1-12.5,11.4-17.9,11.2-3.9-.1-4.9-3.5-3.1-6.5.1-.2.1-.6-.2-.7-.1-.1-.2-.1-.4-.1l-15.9,2.8c-1.1.2-2.1.7-2.8,1.5-3.5,3.7-12,13.1-18.3,9-4.2-2.7-1.5-9.6.5-13,3.8-6.7,14.4-19.1,22.4-18.1,7,.9,3.1,10,1.4,14.5-.5.4-.3.6.2.5Zm-2.8-8.1c.4-.8.1-1.7-.7-2.1-.5-.2-1.1-.2-1.6.1l-4.6,3c-.2.1-.4.3-.5.5l-2.5,4c-.5.7-.2,1.7.5,2.2.2.1.4.2.6.2l3.4.6c.7.1,1.4-.2,1.7-.9l3.7-7.6Zm86.5,1.4c-.3-.7-3.4-.2-6.9,1.1h0c-3.5,1.3-6.2,3-5.9,3.7.3.7,3.4.2,6.9-1.1h0c3.5-1.3,6.1-3,5.9-3.7Zm-56.9,4.1c-.3-.5-2.5.5-4.8,2.2s-3.9,3.4-3.6,3.9h0c.3.5,2.5-.5,4.8-2.2,2.3-1.7,3.9-3.4,3.6-3.9h0Zm-38.7,8.8l-6.8-4.3c-.1-.1-.3,0-.4.1l-.2.4c-2.1,3.3-2.3,6.9-.5,8.1h0l.6.4c1.8,1.2,5-.5,7.1-3.8h0l.2-.3c.1-.3.1-.5,0-.6Z"/>
  <path d="m564.81,104.1c-4,1.3-8,2.8-12,3.4-6,.9-11.5,1.1-16.7.5-2.3-.3-4.1-1.4-5.6-3.6-.2-.3-.5-.3-.7-.1-9,9.3-18.2,18.4-28.6,26-1.9,1.4-3.9,2.5-6.1,3.3-3.6,1.4-7.9-.1-7.5-4.7.3-3,1.3-6.3,2.8-9.7,3.3-7.1,6.6-14.1,9.9-20.8,1.2-2.5.8-2.8-1.3-1.1-3.1,2.5-6.7,5.4-11,8.5-3,2.2-11.3,4.5-10.1-2.1.1-.4-.1-.5-.5-.5-4.8.7-9.1.6-10.9-4.7-1-3-1.3-8-6-6.7-4.9,1.4-14.3,10.7-16,13.5-2.1,3.6-4.6,9.2-8.7,7.4-.3-.1-.5-.4-.5-.7-.3-2.8,1.8-5.2,2.8-7.4.2-.5.1-.6-.4-.4-4.3,2.1-17.5,7.3-17.7-2.1-.1-2.1.1-4.1.3-6,0-.3-.1-.5-.4-.5-.1,0-.2,0-.3.1-5.6,3.6-11.2,7-16.9,10.2-4.2,2.4-11.5,2.8-11.2-4.3,0-.3-.2-.5-.5-.5h-.1c-3.5.5-14.3,1.5-17.3,4.6-4.1,4.2-9.8,10.1-15.6,9.3-14.6-2,8.9-34.5,21.6-31.8,5.6,1.2,2,10.9.2,14.3-.1.3,0,.6.2.7.1.1.2.1.3.1,4.9-.9,10.2-1.3,15.1-2.7.4-.1.7-.3,1.1-.6,6.4-5.5,13.9-7.9,22.5-7.2,4.3.4,7.2-10,12.2-8,.3.1.5.3.6.6,1.9,5.1-8.4,14.4-5.6,22.3.1.3.3.5.7.6,3.2.7,14.3-3.8,16.2-7.4,2.5-4.8,5.2-9.8,8.2-14.8.5-.9,1.6-1.1,2.5-.6.2.1.4.3.5.5.7.9.6,2.1-.2,3.7-1.5,3-2.8,6.1-3.9,9.2-.2.6-.1.7.4.3,3.8-3,8.2-7.8,12.9-8.2,6.5-.7,6.4,5.9,7.5,10.2.3,1.1,1,1.7,2.2,1.8,2,.1,4,.1,6.1,0,.6,0,1.1-.2,1.6-.7,4.6-4.6,10.4-7.5,17.5-8.7,5.7-.9,10.8-8.6,15.3-15.2,3.7-5.4,8-11.7,12.9-18.8.9-1.4,2.1-1.6,3.6-.9l.5.3c.9.5,1.2,1.6.7,2.6v.1c-4.8,7.9-9.3,15.1-13.3,21.4-7.7,12.2-14.8,24.7-21.2,37.7-2,4.1-3.6,8.4-4.6,12.9-.1.3.1.6.4.6h.3c1.2-.4,2.3-1,3.4-1.9,11.5-8.8,22.5-18.3,32.9-28.3.7-.6,1.4-2.1,2.3-4.5,1.8-5,13.5-6.8,18.5-6.8,2.5,0,4,3.5,3,5.4-1.2,2.5-7.2,4.5-9.7,5.1-2.4.6-5.4.5-8,.8-.9.1-1.5.9-1.4,1.7,0,.2.1.3.1.4.9,2.1,2.6,3.2,5.1,3.3,10.5.4,20.2-2,29.2-7.4.9-.5,1.7-1.4,2.4-2.7,1.8-3.5,5.6-12.3,8.8-14.1.3-.2.6-.2.9,0,1.2.7,1.5,1.8.9,3.4-1.4,3.5-2.8,6.7-4.2,9.4-.7,1.5-.5,1.7.8.6,3.2-2.8,7.7-7,12.2-7.7,9.6-1.5,4.5,12.2,10.5,12,2.3-.1,4.7,0,7,.2,1,.1,1.6.6,1.7,1.5.1.7-.3,1.5-.9,1.9-3.4,2.2-9.5,3.4-12.7.6-2.1-1.8-3-5-3.6-7.7-.9-3.8-5-3-7.5-1.3-6.5,4.5-12.2,10.7-17.2,18.5-.9,1.4-2.3,1.9-4.3,1.3-.3-.1-.5-.3-.6-.5-1.1-2.5,1.6-5.8,2.7-8,.1-.4,0-.6-.5-.4Zm-186.9-13.9c.4-.8.1-1.7-.7-2-.5-.2-1-.2-1.5.1l-4.5,2.7c-.2.1-.4.3-.5.5l-2.9,4.4c-.5.7-.3,1.6.4,2.1.2.1.3.2.5.2l3.5.8c.7.1,1.4-.2,1.7-.8l4-8Zm171.7,1.5c-.3-.7-3.4-.2-7,1.1h0c-3.6,1.3-6.3,3-6,3.7h0c.3.7,3.4.2,7-1.1h0c3.6-1.4,6.3-3,6-3.7h0Zm-133.4.1c-.5-.9-5,.4-10,3.1-5.1,2.6-8.8,5.5-8.3,6.4h0c.5.9,5-.4,10-3.1,5.1-2.6,8.8-5.4,8.3-6.4h0Zm76.6,3.9c-.3-.5-2.5.5-4.9,2.2s-4,3.5-3.7,3.9c.3.5,2.5-.5,4.9-2.2,2.4-1.6,4-3.4,3.7-3.9Zm-124.2,8.9l-6.7-4.4c-.1-.1-.3,0-.4.1l-.4.5c-2.1,3.2-2.3,6.7-.4,7.9l.5.3c1.9,1.2,5-.4,7.1-3.5l.3-.5c.2-.1.2-.3,0-.4Z"/>
  <path class="cls-1" d="m142.41,96.9l-3.8,7.7c-.3.6-1,1-1.7.9l-3.4-.6c-.9-.2-1.4-1-1.3-1.9,0-.2.1-.4.2-.6l2.5-4c.1-.2.3-.4.5-.5l4.6-3c.7-.5,1.7-.3,2.2.5.4.4.5,1,.2,1.5Z"/>
  <ellipse class="cls-1" cx="222.53" cy="100.7" rx="6.8" ry="1.4" transform="translate(-21.15 83.89) rotate(-20.4)"/>
  <ellipse class="cls-1" cx="167.8" cy="105.38" rx="5.2" ry="1.1" transform="translate(-29.91 118.42) rotate(-35.9)"/>
  <path class="cls-1" d="m133.31,111.2c.1.1.2.3.1.4l-.2.3c-2.1,3.3-5.3,5-7.1,3.8h0l-.6-.4c-1.8-1.2-1.6-4.8.5-8.1h0l.2-.4c.1-.1.3-.2.4-.1l6.7,4.5Z"/>
</svg>